<svg width="15" height="16" viewBox="0 0 15 16" fill="none" xmlns="http://www.w3.org/2000/svg">
<g id="Group">
<path id="Vector" opacity="0.2" d="M14.375 1.75V14.25C14.375 14.4158 14.3092 14.5747 14.1919 14.6919C14.0747 14.8092 13.9158 14.875 13.75 14.875H1.25C1.08424 14.875 0.925269 14.8092 0.808058 14.6919C0.690848 14.5747 0.625 14.4158 0.625 14.25V1.75C0.625 1.58424 0.690848 1.42527 0.808058 1.30806C0.925269 1.19085 1.08424 1.125 1.25 1.125H13.75C13.9158 1.125 14.0747 1.19085 14.1919 1.30806C14.3092 1.42527 14.375 1.58424 14.375 1.75Z" fill="black"/>
<path id="Vector_2" d="M13.75 0.5H1.25C0.918479 0.5 0.600537 0.631696 0.366116 0.866116C0.131696 1.10054 0 1.41848 0 1.75V14.25C0 14.5815 0.131696 14.8995 0.366116 15.1339C0.600537 15.3683 0.918479 15.5 1.25 15.5H13.75C14.0815 15.5 14.3995 15.3683 14.6339 15.1339C14.8683 14.8995 15 14.5815 15 14.25V1.75C15 1.41848 14.8683 1.10054 14.6339 0.866116C14.3995 0.631696 14.0815 0.5 13.75 0.5ZM13.75 14.25H1.25V1.75H13.75V14.25ZM4.55781 10.9422C4.4997 10.8841 4.4536 10.8152 4.42215 10.7393C4.3907 10.6635 4.37451 10.5821 4.37451 10.5C4.37451 10.4179 4.3907 10.3365 4.42215 10.2607C4.4536 10.1848 4.4997 10.1159 4.55781 10.0578L8.49141 6.125H6.25C6.08424 6.125 5.92527 6.05915 5.80806 5.94194C5.69085 5.82473 5.625 5.66576 5.625 5.5C5.625 5.33424 5.69085 5.17527 5.80806 5.05806C5.92527 4.94085 6.08424 4.875 6.25 4.875H10C10.1658 4.875 10.3247 4.94085 10.4419 5.05806C10.5592 5.17527 10.625 5.33424 10.625 5.5V9.25C10.625 9.41576 10.5592 9.57473 10.4419 9.69194C10.3247 9.80915 10.1658 9.875 10 9.875C9.83424 9.875 9.67527 9.80915 9.55806 9.69194C9.44085 9.57473 9.375 9.41576 9.375 9.25V7.00859L5.44219 10.9422C5.38414 11.0003 5.31521 11.0464 5.23934 11.0779C5.16346 11.1093 5.08213 11.1255 5 11.1255C4.91787 11.1255 4.83654 11.1093 4.76066 11.0779C4.68479 11.0464 4.61586 11.0003 4.55781 10.9422Z" fill="black"/>
</g>
</svg>
